<mxfile host="app.diagrams.net" modified="2023-05-02T14:13:32.283Z" agent="Mozilla/5.0 (Windows NT 6.1; Win64; x64; rv:109.0) Gecko/20100101 Firefox/112.0" etag="7t2-4IdLC99WV5dFPJPQ" version="21.2.1" type="github">
  <diagram name="Page-1" id="cdJFgnRZKSv7TjTgte76">
    <mxGraphModel dx="924" dy="347" grid="1" gridSize="10" guides="1" tooltips="1" connect="1" arrows="1" fold="1" page="1" pageScale="1" pageWidth="850" pageHeight="1100" math="0" shadow="0">
      <root>
        <mxCell id="0" />
        <mxCell id="1" parent="0" />
        <mxCell id="kGz52Ocv0qRSrAAiTenu-2" style="edgeStyle=orthogonalEdgeStyle;rounded=0;orthogonalLoop=1;jettySize=auto;html=1;exitX=1;exitY=0.25;exitDx=0;exitDy=0;startArrow=classic;startFill=1;entryX=0;entryY=0.5;entryDx=0;entryDy=0;" edge="1" parent="1" source="kGz52Ocv0qRSrAAiTenu-5" target="kGz52Ocv0qRSrAAiTenu-16">
          <mxGeometry relative="1" as="geometry">
            <mxPoint x="511" y="185" as="targetPoint" />
          </mxGeometry>
        </mxCell>
        <mxCell id="kGz52Ocv0qRSrAAiTenu-3" value="HTTPS" style="edgeLabel;html=1;align=center;verticalAlign=middle;resizable=0;points=[];" vertex="1" connectable="0" parent="kGz52Ocv0qRSrAAiTenu-2">
          <mxGeometry x="-0.1202" y="1" relative="1" as="geometry">
            <mxPoint as="offset" />
          </mxGeometry>
        </mxCell>
        <mxCell id="kGz52Ocv0qRSrAAiTenu-4" value="HTTPS" style="edgeLabel;html=1;align=center;verticalAlign=middle;resizable=0;points=[];" vertex="1" connectable="0" parent="kGz52Ocv0qRSrAAiTenu-2">
          <mxGeometry x="-0.1202" y="1" relative="1" as="geometry">
            <mxPoint x="-210" y="-18" as="offset" />
          </mxGeometry>
        </mxCell>
        <mxCell id="kGz52Ocv0qRSrAAiTenu-5" value="FW" style="image;html=1;image=img/lib/clip_art/networking/Firewall_02_128x128.png;fontSize=10;" vertex="1" parent="1">
          <mxGeometry x="195" y="95.17" width="53" height="43" as="geometry" />
        </mxCell>
        <mxCell id="kGz52Ocv0qRSrAAiTenu-6" value="MICROSERVICIOS&#xa;10.1.1.156" style="swimlane;startSize=50;fontSize=10;" vertex="1" parent="1">
          <mxGeometry x="300" y="247" width="200" height="183" as="geometry">
            <mxRectangle x="310" y="150" width="130" height="23" as="alternateBounds" />
          </mxGeometry>
        </mxCell>
        <mxCell id="kGz52Ocv0qRSrAAiTenu-7" value="" style="aspect=fixed;perimeter=ellipsePerimeter;html=1;align=center;shadow=0;dashed=0;spacingTop=3;image;image=img/lib/active_directory/generic_server.svg;fontSize=10;" vertex="1" parent="kGz52Ocv0qRSrAAiTenu-6">
          <mxGeometry x="92.4" y="68" width="61.6" height="110" as="geometry" />
        </mxCell>
        <mxCell id="kGz52Ocv0qRSrAAiTenu-8" style="edgeStyle=orthogonalEdgeStyle;rounded=0;orthogonalLoop=1;jettySize=auto;html=1;exitX=1;exitY=0.68;exitDx=0;exitDy=0;exitPerimeter=0;startArrow=classic;startFill=1;" edge="1" parent="1" source="kGz52Ocv0qRSrAAiTenu-12" target="kGz52Ocv0qRSrAAiTenu-10">
          <mxGeometry relative="1" as="geometry" />
        </mxCell>
        <mxCell id="kGz52Ocv0qRSrAAiTenu-9" style="edgeStyle=orthogonalEdgeStyle;rounded=0;orthogonalLoop=1;jettySize=auto;html=1;entryX=0;entryY=0.25;entryDx=0;entryDy=0;startArrow=classic;startFill=1;" edge="1" parent="1" source="kGz52Ocv0qRSrAAiTenu-10" target="kGz52Ocv0qRSrAAiTenu-5">
          <mxGeometry relative="1" as="geometry" />
        </mxCell>
        <mxCell id="kGz52Ocv0qRSrAAiTenu-10" value="" style="sketch=0;pointerEvents=1;shadow=0;dashed=0;html=1;strokeColor=none;fillColor=#434445;aspect=fixed;labelPosition=center;verticalLabelPosition=bottom;verticalAlign=top;align=center;outlineConnect=0;shape=mxgraph.vvd.web_browser;" vertex="1" parent="1">
          <mxGeometry x="85" y="86.17" width="56.34" height="40" as="geometry" />
        </mxCell>
        <mxCell id="kGz52Ocv0qRSrAAiTenu-11" value="" style="group" vertex="1" connectable="0" parent="1">
          <mxGeometry x="10" y="64.17" width="50" height="86" as="geometry" />
        </mxCell>
        <mxCell id="kGz52Ocv0qRSrAAiTenu-12" value="" style="outlineConnect=0;dashed=0;verticalLabelPosition=bottom;verticalAlign=top;align=center;html=1;shape=mxgraph.aws3.user;fillColor=#D2D3D3;gradientColor=none;" vertex="1" parent="kGz52Ocv0qRSrAAiTenu-11">
          <mxGeometry x="3" width="45" height="63" as="geometry" />
        </mxCell>
        <mxCell id="kGz52Ocv0qRSrAAiTenu-13" value="Cliente" style="text;html=1;align=center;verticalAlign=middle;resizable=0;points=[];autosize=1;strokeColor=none;fillColor=none;" vertex="1" parent="kGz52Ocv0qRSrAAiTenu-11">
          <mxGeometry y="66" width="50" height="20" as="geometry" />
        </mxCell>
        <mxCell id="kGz52Ocv0qRSrAAiTenu-14" style="edgeStyle=orthogonalEdgeStyle;rounded=0;orthogonalLoop=1;jettySize=auto;html=1;exitX=0.5;exitY=1;exitDx=0;exitDy=0;entryX=0.5;entryY=0;entryDx=0;entryDy=0;startArrow=classic;startFill=1;" edge="1" parent="1" source="kGz52Ocv0qRSrAAiTenu-16" target="kGz52Ocv0qRSrAAiTenu-6">
          <mxGeometry relative="1" as="geometry" />
        </mxCell>
        <mxCell id="kGz52Ocv0qRSrAAiTenu-15" value="HTTPS" style="edgeLabel;html=1;align=center;verticalAlign=middle;resizable=0;points=[];" vertex="1" connectable="0" parent="kGz52Ocv0qRSrAAiTenu-14">
          <mxGeometry x="0.13" y="-2" relative="1" as="geometry">
            <mxPoint x="2" y="-23" as="offset" />
          </mxGeometry>
        </mxCell>
        <mxCell id="kGz52Ocv0qRSrAAiTenu-16" value="BancaVirtual&#xa;188.1.1.2" style="swimlane;startSize=50;fontSize=10;" vertex="1" parent="1">
          <mxGeometry x="344" y="42" width="110" height="130" as="geometry">
            <mxRectangle x="310" y="150" width="130" height="23" as="alternateBounds" />
          </mxGeometry>
        </mxCell>
        <mxCell id="kGz52Ocv0qRSrAAiTenu-17" value="" style="aspect=fixed;perimeter=ellipsePerimeter;html=1;align=center;shadow=0;dashed=0;spacingTop=3;image;image=img/lib/active_directory/generic_server.svg;fontSize=10;" vertex="1" parent="kGz52Ocv0qRSrAAiTenu-16">
          <mxGeometry x="38.2" y="58.5" width="33.6" height="60" as="geometry" />
        </mxCell>
        <mxCell id="kGz52Ocv0qRSrAAiTenu-21" value="SWBUS_Integracion&#xa;xxx.xxx.xxx.xxx&#xa;" style="swimlane;startSize=50;fontSize=10;" vertex="1" parent="1">
          <mxGeometry x="510" y="495" width="100" height="130" as="geometry">
            <mxRectangle x="310" y="150" width="130" height="23" as="alternateBounds" />
          </mxGeometry>
        </mxCell>
        <mxCell id="kGz52Ocv0qRSrAAiTenu-22" value="" style="aspect=fixed;perimeter=ellipsePerimeter;html=1;align=center;shadow=0;dashed=0;spacingTop=3;image;image=img/lib/active_directory/generic_server.svg;fontSize=10;" vertex="1" parent="kGz52Ocv0qRSrAAiTenu-21">
          <mxGeometry x="38.2" y="60" width="33.6" height="60" as="geometry" />
        </mxCell>
        <mxCell id="kGz52Ocv0qRSrAAiTenu-23" value="HTTPS" style="edgeStyle=orthogonalEdgeStyle;rounded=0;orthogonalLoop=1;jettySize=auto;html=1;exitX=0.5;exitY=0;exitDx=0;exitDy=0;startArrow=classic;startFill=1;entryX=0.25;entryY=1;entryDx=0;entryDy=0;" edge="1" parent="1" source="kGz52Ocv0qRSrAAiTenu-21" target="kGz52Ocv0qRSrAAiTenu-29">
          <mxGeometry relative="1" as="geometry">
            <mxPoint x="161" y="302.5" as="sourcePoint" />
            <mxPoint x="271" y="360" as="targetPoint" />
          </mxGeometry>
        </mxCell>
        <mxCell id="kGz52Ocv0qRSrAAiTenu-29" value="ServiceFacilito" style="shape=process;whiteSpace=wrap;html=1;backgroundOutline=1;" vertex="1" parent="1">
          <mxGeometry x="476" y="398" width="134" height="27" as="geometry" />
        </mxCell>
        <mxCell id="kGz52Ocv0qRSrAAiTenu-30" value="ServiceSwitchPago" style="shape=process;whiteSpace=wrap;html=1;backgroundOutline=1;" vertex="1" parent="1">
          <mxGeometry x="476" y="310" width="134" height="27" as="geometry" />
        </mxCell>
        <mxCell id="kGz52Ocv0qRSrAAiTenu-33" value="FW" style="image;html=1;image=img/lib/clip_art/networking/Firewall_02_128x128.png;fontSize=10;" vertex="1" parent="1">
          <mxGeometry x="385.5" y="202.42000000000002" width="29" height="20" as="geometry" />
        </mxCell>
        <mxCell id="kGz52Ocv0qRSrAAiTenu-38" value="FITBANK&#xa;10.1.1.25,10.1.1.26,10.1.1.27&#xa;10.1.1.13,10.1.1.14,10.1.1.15&#xa;10.1.1.102,10.1.1.103,10.1.1.104&#xa;10.1.1.142,10.1.1.143,10.1.1.144" style="swimlane;startSize=70;fontSize=10;" vertex="1" parent="1">
          <mxGeometry x="860" y="86.17" width="190" height="170" as="geometry">
            <mxRectangle x="310" y="150" width="130" height="23" as="alternateBounds" />
          </mxGeometry>
        </mxCell>
        <mxCell id="kGz52Ocv0qRSrAAiTenu-39" value="" style="aspect=fixed;perimeter=ellipsePerimeter;html=1;align=center;shadow=0;dashed=0;spacingTop=3;image;image=img/lib/active_directory/generic_server.svg;fontSize=10;" vertex="1" parent="kGz52Ocv0qRSrAAiTenu-38">
          <mxGeometry x="47" y="81" width="33.6" height="60" as="geometry" />
        </mxCell>
        <mxCell id="kGz52Ocv0qRSrAAiTenu-40" value="" style="aspect=fixed;perimeter=ellipsePerimeter;html=1;align=center;shadow=0;dashed=0;spacingTop=3;image;image=img/lib/active_directory/generic_server.svg;fontSize=10;" vertex="1" parent="kGz52Ocv0qRSrAAiTenu-38">
          <mxGeometry x="65" y="81" width="33.6" height="60" as="geometry" />
        </mxCell>
        <mxCell id="kGz52Ocv0qRSrAAiTenu-41" value="" style="aspect=fixed;perimeter=ellipsePerimeter;html=1;align=center;shadow=0;dashed=0;spacingTop=3;image;image=img/lib/active_directory/generic_server.svg;fontSize=10;" vertex="1" parent="kGz52Ocv0qRSrAAiTenu-38">
          <mxGeometry x="85" y="81" width="33.6" height="60" as="geometry" />
        </mxCell>
        <mxCell id="kGz52Ocv0qRSrAAiTenu-42" value="" style="aspect=fixed;perimeter=ellipsePerimeter;html=1;align=center;shadow=0;dashed=0;spacingTop=3;image;image=img/lib/active_directory/generic_server.svg;fontSize=10;" vertex="1" parent="kGz52Ocv0qRSrAAiTenu-38">
          <mxGeometry x="105" y="81" width="33.6" height="60" as="geometry" />
        </mxCell>
        <mxCell id="kGz52Ocv0qRSrAAiTenu-43" style="edgeStyle=orthogonalEdgeStyle;rounded=0;orthogonalLoop=1;jettySize=auto;html=1;entryX=0.5;entryY=1;entryDx=0;entryDy=0;startArrow=classic;startFill=1;" edge="1" parent="1" source="kGz52Ocv0qRSrAAiTenu-45" target="kGz52Ocv0qRSrAAiTenu-38">
          <mxGeometry relative="1" as="geometry">
            <mxPoint x="942.5" y="170" as="targetPoint" />
          </mxGeometry>
        </mxCell>
        <mxCell id="kGz52Ocv0qRSrAAiTenu-44" value="HTTPS" style="edgeLabel;html=1;align=center;verticalAlign=middle;resizable=0;points=[];" vertex="1" connectable="0" parent="kGz52Ocv0qRSrAAiTenu-43">
          <mxGeometry x="-0.1812" y="1" relative="1" as="geometry">
            <mxPoint x="1" as="offset" />
          </mxGeometry>
        </mxCell>
        <mxCell id="kGz52Ocv0qRSrAAiTenu-45" value="HAPROXY&#xa;10.1.1.56" style="swimlane;startSize=50;fontSize=10;" vertex="1" parent="1">
          <mxGeometry x="902.5" y="300" width="105" height="130" as="geometry">
            <mxRectangle x="310" y="150" width="130" height="23" as="alternateBounds" />
          </mxGeometry>
        </mxCell>
        <mxCell id="kGz52Ocv0qRSrAAiTenu-46" value="" style="aspect=fixed;perimeter=ellipsePerimeter;html=1;align=center;shadow=0;dashed=0;spacingTop=3;image;image=img/lib/active_directory/generic_server.svg;fontSize=10;" vertex="1" parent="kGz52Ocv0qRSrAAiTenu-45">
          <mxGeometry x="38.2" y="65" width="33.6" height="60" as="geometry" />
        </mxCell>
        <mxCell id="kGz52Ocv0qRSrAAiTenu-47" style="edgeStyle=orthogonalEdgeStyle;rounded=0;orthogonalLoop=1;jettySize=auto;html=1;exitX=1;exitY=0.25;exitDx=0;exitDy=0;entryX=0;entryY=0.114;entryDx=0;entryDy=0;startArrow=classic;startFill=1;entryPerimeter=0;" edge="1" parent="1" target="kGz52Ocv0qRSrAAiTenu-49" source="kGz52Ocv0qRSrAAiTenu-30">
          <mxGeometry relative="1" as="geometry">
            <mxPoint x="660" y="550" as="sourcePoint" />
          </mxGeometry>
        </mxCell>
        <mxCell id="kGz52Ocv0qRSrAAiTenu-48" value="TCP:64234" style="edgeLabel;html=1;align=center;verticalAlign=middle;resizable=0;points=[];" vertex="1" connectable="0" parent="kGz52Ocv0qRSrAAiTenu-47">
          <mxGeometry x="-0.0414" relative="1" as="geometry">
            <mxPoint x="-3" y="10" as="offset" />
          </mxGeometry>
        </mxCell>
        <mxCell id="kGz52Ocv0qRSrAAiTenu-49" value="CPPBATRANSA&#xa;10.1.1.141&#xa;DBSwitchServicio&#xa;" style="swimlane;startSize=70;fontSize=10;" vertex="1" parent="1">
          <mxGeometry x="700" y="300" width="110" height="140" as="geometry">
            <mxRectangle x="310" y="150" width="130" height="23" as="alternateBounds" />
          </mxGeometry>
        </mxCell>
        <mxCell id="kGz52Ocv0qRSrAAiTenu-50" value="" style="aspect=fixed;perimeter=ellipsePerimeter;html=1;align=center;shadow=0;dashed=0;spacingTop=3;image;image=img/lib/active_directory/database_server.svg;" vertex="1" parent="kGz52Ocv0qRSrAAiTenu-49">
          <mxGeometry x="33.2" y="73" width="51.4" height="62.68" as="geometry" />
        </mxCell>
        <mxCell id="kGz52Ocv0qRSrAAiTenu-51" style="rounded=0;orthogonalLoop=1;jettySize=auto;html=1;startArrow=classic;startFill=1;exitX=0.75;exitY=1;exitDx=0;exitDy=0;entryX=0.25;entryY=1;entryDx=0;entryDy=0;" edge="1" parent="1" source="kGz52Ocv0qRSrAAiTenu-29" target="kGz52Ocv0qRSrAAiTenu-45">
          <mxGeometry relative="1" as="geometry">
            <mxPoint x="609" y="379" as="sourcePoint" />
            <mxPoint x="920" y="430" as="targetPoint" />
            <Array as="points">
              <mxPoint x="577" y="460" />
              <mxPoint x="929" y="460" />
            </Array>
          </mxGeometry>
        </mxCell>
        <mxCell id="kGz52Ocv0qRSrAAiTenu-52" value="HTTPS" style="edgeLabel;html=1;align=center;verticalAlign=middle;resizable=0;points=[];" vertex="1" connectable="0" parent="kGz52Ocv0qRSrAAiTenu-51">
          <mxGeometry x="-0.2988" y="3" relative="1" as="geometry">
            <mxPoint x="11" as="offset" />
          </mxGeometry>
        </mxCell>
        <mxCell id="kGz52Ocv0qRSrAAiTenu-53" style="rounded=0;orthogonalLoop=1;jettySize=auto;html=1;startArrow=classic;startFill=1;exitX=0.75;exitY=0;exitDx=0;exitDy=0;entryX=0.186;entryY=-0.023;entryDx=0;entryDy=0;entryPerimeter=0;" edge="1" parent="1" source="kGz52Ocv0qRSrAAiTenu-30" target="kGz52Ocv0qRSrAAiTenu-45">
          <mxGeometry relative="1" as="geometry">
            <mxPoint x="620" y="390" as="sourcePoint" />
            <mxPoint x="913" y="362" as="targetPoint" />
            <Array as="points">
              <mxPoint x="577" y="280" />
              <mxPoint x="922" y="280" />
            </Array>
          </mxGeometry>
        </mxCell>
        <mxCell id="kGz52Ocv0qRSrAAiTenu-54" value="HTTPS" style="edgeLabel;html=1;align=center;verticalAlign=middle;resizable=0;points=[];" vertex="1" connectable="0" parent="kGz52Ocv0qRSrAAiTenu-53">
          <mxGeometry x="-0.2988" y="3" relative="1" as="geometry">
            <mxPoint x="11" as="offset" />
          </mxGeometry>
        </mxCell>
        <mxCell id="kGz52Ocv0qRSrAAiTenu-55" style="edgeStyle=orthogonalEdgeStyle;rounded=0;orthogonalLoop=1;jettySize=auto;html=1;exitX=1;exitY=0.25;exitDx=0;exitDy=0;startArrow=classic;startFill=1;entryX=0;entryY=0.75;entryDx=0;entryDy=0;" edge="1" parent="1" source="kGz52Ocv0qRSrAAiTenu-29" target="kGz52Ocv0qRSrAAiTenu-49">
          <mxGeometry relative="1" as="geometry">
            <mxPoint x="620" y="327" as="sourcePoint" />
            <mxPoint x="700" y="387" as="targetPoint" />
          </mxGeometry>
        </mxCell>
        <mxCell id="kGz52Ocv0qRSrAAiTenu-56" value="TCP:64234" style="edgeLabel;html=1;align=center;verticalAlign=middle;resizable=0;points=[];" vertex="1" connectable="0" parent="kGz52Ocv0qRSrAAiTenu-55">
          <mxGeometry x="-0.0414" relative="1" as="geometry">
            <mxPoint x="-3" y="10" as="offset" />
          </mxGeometry>
        </mxCell>
      </root>
    </mxGraphModel>
  </diagram>
</mxfile>
